<svg width="86.000000" height="86.000000" viewBox="0 0 86 86" fill="none" xmlns="http://www.w3.org/2000/svg" xmlns:xlink="http://www.w3.org/1999/xlink">
	<desc>
			Created with Pixso.
	</desc>
	<defs/>
	<circle cx="43.000000" cy="43.000000" r="43.000000" fill="#96A9C6" fill-opacity="1.000000"/>
	<circle cx="43.000000" cy="43.000000" r="43.000000" stroke="#979797" stroke-opacity="0" stroke-width="0.000000"/>
	<path d="M52.87 49.87L47.77 47.32C47.29 47.08 47 46.6 47 46.06L47 44.26C47.12 44.11 47.25 43.94 47.38 43.75C48.04 42.82 48.57 41.78 48.95 40.66C49.71 40.31 50.2 39.57 50.2 38.73L50.2 36.59C50.2 36.08 50 35.58 49.66 35.2L49.66 32.36C49.69 32.06 49.81 30.32 48.55 28.88C47.45 27.63 45.67 27 43.26 27C40.85 27 39.07 27.63 37.98 28.88C36.71 30.32 36.83 32.06 36.86 32.36L36.86 35.2C36.52 35.58 36.33 36.08 36.33 36.59L36.33 38.73C36.33 39.38 36.62 39.98 37.13 40.39C37.62 42.32 38.64 43.78 39 44.25L39 46.01C39 46.53 38.71 47 38.26 47.25L33.5 49.84C31.96 50.69 31 52.31 31 54.07L31 55.8C31 58.33 39.02 59 43.26 59C47.5 59 55.53 58.33 55.53 55.8L55.53 54.17C55.53 52.34 54.51 50.69 52.87 49.87Z" fill="#FFFFFF" fill-opacity="1.000000" fill-rule="nonzero"/>
</svg>
